# xmcd
#
# Track frame offsets:
#	150
#	17107
#	31107
#	44862
#	62006
#	79033
#	102268
#	116289
#	129990
#	151948
#	166730
#	202473
#	211956
#	232576
#
# Disc length: 3376 seconds
#
# Revision: 1
# Processed by: cddbd v1.5.2PL0 Copyright (c) Steve Scherf et al.
# Submitted via: EasyCDDAExtractor 5.1.0
#
DISCID=af0d2e0e
DTITLE=Various Artist - Best Music for Best Doctor
DYEAR=1900
DGENRE=
TTITLE0=Eric Clapton - Before you accuse me
TTITLE1=Peter Green and Gary Moore - I love another woman
TTITLE2=John Lennon - Imagine
TTITLE3=Santana - Black Magic Woman
TTITLE4=The Rolling Stones - Satisfaction
TTITLE5=Santana - Oye Como Va
TTITLE6=The Rolling Stones - Lady Jane
TTITLE7=Santana - Samba Pati
TTITLE8=John Lennon - Give peace a chance
TTITLE9=John Lennon - Power to the people
TTITLE10=Peter Green and Gary Moore - Need your love so bad
TTITLE11=Peter Green and Gary Moore - Long grey more
TTITLE12=Creedence Clearwater Revival - Susie Q
TTITLE13=Eric Clapton - Tears in heaven
EXTD=
EXTT0=
EXTT1=
EXTT2=
EXTT3=
EXTT4=
EXTT5=
EXTT6=
EXTT7=
EXTT8=
EXTT9=
EXTT10=
EXTT11=
EXTT12=
EXTT13=
PLAYORDER=
